<mxfile host="app.diagrams.net" agent="Mozilla/5.0 (Macintosh; Intel Mac OS X 10_15_7) AppleWebKit/537.36 (KHTML, like Gecko) Chrome/131.0.0.0 Safari/537.36" version="25.0.3">
  <diagram name="第 1 页" id="DHGKLkrySonnZHAtDqFE">
    <mxGraphModel dx="1000" dy="1716" grid="1" gridSize="10" guides="1" tooltips="1" connect="1" arrows="1" fold="1" page="1" pageScale="1" pageWidth="827" pageHeight="1169" math="0" shadow="0">
      <root>
        <mxCell id="0" />
        <mxCell id="1" parent="0" />
        <mxCell id="M8roDwwQgaFX-atadGX4-1" value="" style="rounded=0;whiteSpace=wrap;html=1;fillColor=#d5e8d4;strokeColor=none;" vertex="1" parent="1">
          <mxGeometry x="80" y="160" width="240" height="40" as="geometry" />
        </mxCell>
        <mxCell id="M8roDwwQgaFX-atadGX4-2" value="" style="rounded=0;whiteSpace=wrap;html=1;fillColor=#d5e8d4;strokeColor=none;rotation=-90;" vertex="1" parent="1">
          <mxGeometry x="99.38" y="99.38" width="161.25" height="40" as="geometry" />
        </mxCell>
        <mxCell id="M8roDwwQgaFX-atadGX4-3" style="edgeStyle=orthogonalEdgeStyle;rounded=0;orthogonalLoop=1;jettySize=auto;html=1;exitX=0;exitY=0.5;exitDx=0;exitDy=0;" edge="1" parent="1" source="M8roDwwQgaFX-atadGX4-2" target="M8roDwwQgaFX-atadGX4-2">
          <mxGeometry relative="1" as="geometry" />
        </mxCell>
        <mxCell id="M8roDwwQgaFX-atadGX4-5" value="" style="rounded=0;whiteSpace=wrap;html=1;fillColor=#d5e8d4;strokeColor=none;rotation=-180;" vertex="1" parent="1">
          <mxGeometry x="160" y="40" width="202.5" height="40" as="geometry" />
        </mxCell>
        <mxCell id="M8roDwwQgaFX-atadGX4-8" value="" style="rounded=0;whiteSpace=wrap;html=1;fillColor=#d5e8d4;strokeColor=none;rotation=-90;" vertex="1" parent="1">
          <mxGeometry x="140.95" y="20.32" width="319.37" height="40" as="geometry" />
        </mxCell>
        <mxCell id="M8roDwwQgaFX-atadGX4-9" value="EXIT" style="rounded=1;whiteSpace=wrap;html=1;fillColor=#f8cecc;strokeColor=#b85450;" vertex="1" parent="1">
          <mxGeometry x="280.64" y="-120" width="40" height="30" as="geometry" />
        </mxCell>
      </root>
    </mxGraphModel>
  </diagram>
</mxfile>
